<svg width="52" height="52" viewBox="0 0 52 52" fill="none" xmlns="http://www.w3.org/2000/svg">
<g clip-path="url(#clip0_92_1182)">
<path d="M21.4321 39.2255C23.0917 37.6784 23.3473 35.2552 22.0029 33.813C20.6585 32.3708 18.2233 32.4558 16.5636 34.0029C14.904 35.55 14.6484 37.9733 15.9928 39.4155C17.3372 40.8577 19.7724 40.7726 21.4321 39.2255Z" fill="url(#paint0_linear_92_1182)"/>
<path d="M43.3921 39.2271C45.0517 37.68 45.3073 35.2567 43.9629 33.8146C42.6185 32.3724 40.1832 32.4574 38.5236 34.0045C36.864 35.5516 36.6084 37.9749 37.9528 39.4171C39.2972 40.8593 41.7324 40.7742 43.3921 39.2271Z" fill="url(#paint1_linear_92_1182)"/>
<path d="M4.01768 20.2906C4.01768 19.3328 3.24126 18.5564 2.2835 18.5564C1.32574 18.5564 0.549316 19.3328 0.549316 20.2906C0.549316 21.2483 1.32574 22.0248 2.2835 22.0248C3.24126 22.0248 4.01768 21.2483 4.01768 20.2906Z" fill="url(#paint2_linear_92_1182)"/>
<path d="M35.1893 36.2517C35.8058 33.2048 38.6841 30.7835 41.7777 30.7835C44.7565 30.7835 46.9035 33.0291 46.8446 35.9165C50.0662 36.0008 50.963 31.7585 50.963 31.7585C51.2342 30.5723 51.6394 28.2597 51.9786 25.9898C52.0898 25.289 52.0044 24.5711 51.7318 23.9159C50.8897 21.9501 49.872 20.0642 48.691 18.2812C47.5739 16.6146 45.7 15.6274 43.5611 15.5918C42.2855 15.5715 41.0332 15.5593 40.0877 15.5593L40.0796 15.5512C39.9577 13.5118 38.4708 11.9498 36.3837 11.7629C35.0258 11.6421 29.6471 11.5537 27.0653 11.5537C26.0396 11.5537 24.5679 11.5679 23.079 11.5923V11.5862H23.0668H5.16543C4.93759 11.5861 4.71196 11.6309 4.50143 11.718C4.29091 11.8051 4.09963 11.9329 3.93852 12.094C3.77742 12.2551 3.64964 12.4464 3.56252 12.6569C3.47539 12.8674 3.43061 13.0931 3.43074 13.3209V13.329C3.43074 13.7869 3.61265 14.2261 3.93644 14.5499C4.26023 14.8737 4.69939 15.0556 5.1573 15.0556H8.76582C9.20033 15.0876 9.60667 15.2827 9.90333 15.6018C10.2 15.9209 10.3651 16.3404 10.3654 16.7761V16.7852C10.3661 17.0133 10.3218 17.2392 10.235 17.4501C10.1483 17.661 10.0208 17.8528 9.85987 18.0144C9.69893 18.176 9.50772 18.3042 9.29716 18.3918C9.0866 18.4795 8.86083 18.5247 8.63277 18.525H6.7823C6.3225 18.525 5.88154 18.7076 5.55641 19.0327C5.23129 19.3579 5.04863 19.7988 5.04863 20.2586C5.0485 20.4864 5.09324 20.7119 5.18031 20.9224C5.26737 21.1328 5.39505 21.3241 5.55605 21.4852C5.71705 21.6463 5.90822 21.7741 6.11862 21.8613C6.32903 21.9484 6.55455 21.9933 6.7823 21.9933H8.63277C9.09284 21.9933 9.53406 22.1761 9.85938 22.5014C10.1847 22.8267 10.3675 23.2679 10.3675 23.728C10.3675 24.1881 10.1847 24.6293 9.85938 24.9546C9.53406 25.2799 9.09284 25.4627 8.63277 25.4627H1.71027C1.25038 25.4627 0.809311 25.6453 0.484023 25.9704C0.158735 26.2955 -0.0241448 26.7365 -0.0244141 27.1964C-0.0244141 27.6564 0.158347 28.0977 0.483664 28.423C0.808981 28.7483 1.25021 28.931 1.71027 28.931H8.63277C9.09284 28.931 9.53406 29.1138 9.85938 29.4391C10.1847 29.7644 10.3675 30.2057 10.3675 30.6657C10.3669 31.1255 10.1839 31.5662 9.85866 31.891C9.5334 32.2159 9.09249 32.3984 8.63277 32.3984H6.49183C6.03204 32.3984 5.59107 32.581 5.26594 32.9062C4.94082 33.2313 4.75816 33.6723 4.75816 34.1321C4.75816 34.592 4.94078 35.033 5.26588 35.3583C5.59098 35.6836 6.03194 35.8665 6.49183 35.8667L13.3229 35.8617L13.8907 34.4469C15.0536 32.3019 17.3671 30.7825 19.8168 30.7825C22.9114 30.7825 25.1093 33.2058 24.8675 36.2547H35.1883L35.1893 36.2517ZM17.9836 19.3324H15.6558C15.6536 19.3326 15.6515 19.3334 15.6499 19.3349C15.6482 19.3364 15.6471 19.3383 15.6467 19.3405L15.4324 20.8639C15.4321 20.8652 15.432 20.8664 15.4323 20.8677C15.4326 20.8689 15.4331 20.8701 15.4339 20.8711C15.4347 20.872 15.4357 20.8728 15.4368 20.8734C15.438 20.8739 15.4392 20.8741 15.4405 20.8741H17.1732C17.2582 20.8717 17.3427 20.8883 17.4205 20.9227C17.4984 20.9571 17.5675 21.0084 17.623 21.0729C17.6785 21.1374 17.7188 21.2135 17.7412 21.2956C17.7635 21.3777 17.7672 21.4637 17.7521 21.5475C17.7224 21.7315 17.6295 21.8994 17.4893 22.0223C17.3492 22.1452 17.1706 22.2154 16.9843 22.2208H15.2496C15.2475 22.2208 15.2454 22.2214 15.2437 22.2227C15.2421 22.224 15.2409 22.2259 15.2404 22.2279L14.9296 24.441C14.9 24.625 14.807 24.7929 14.6669 24.9158C14.5268 25.0387 14.3482 25.1089 14.1618 25.1143C14.0768 25.1168 13.9923 25.1002 13.9145 25.0658C13.8368 25.0314 13.7676 24.9801 13.7122 24.9155C13.6569 24.851 13.6166 24.7749 13.5944 24.6928C13.5722 24.6107 13.5686 24.5246 13.5839 24.441L14.3903 18.7007C14.4223 18.5063 14.5208 18.3291 14.6691 18.1994C14.8173 18.0697 15.006 17.9956 15.2028 17.9897H18.1715C18.2565 17.9873 18.341 18.0039 18.4188 18.0383C18.4966 18.0727 18.5657 18.124 18.6211 18.1885C18.6765 18.2531 18.7168 18.3292 18.739 18.4113C18.7612 18.4934 18.7647 18.5794 18.7494 18.6631C18.7193 18.8462 18.6264 19.0131 18.4867 19.1352C18.347 19.2574 18.1691 19.3271 17.9836 19.3324ZM24.2053 18.4468C24.4472 18.6613 24.6173 18.9449 24.6928 19.2593C24.7773 19.6154 24.7911 19.9846 24.7335 20.346C24.6629 20.9083 24.4327 21.4387 24.0703 21.8745C23.8489 22.1362 23.5678 22.3407 23.2507 22.4707C23.2492 22.4722 23.2484 22.4742 23.2484 22.4762C23.2484 22.4783 23.2492 22.4803 23.2507 22.4818L23.8275 24.1464C23.9829 24.5933 23.5838 25.1143 23.0871 25.1143H23.0546C22.9342 25.1179 22.8157 25.083 22.7163 25.0147C22.617 24.9464 22.542 24.8483 22.5021 24.7345L21.8044 22.7032C21.8034 22.7017 21.8021 22.7004 21.8005 22.6996C21.7989 22.6987 21.7971 22.6982 21.7953 22.6982H20.3125C20.3104 22.6983 20.3084 22.699 20.3068 22.7003C20.3051 22.7016 20.3039 22.7033 20.3033 22.7053L20.0596 24.44C20.0299 24.624 19.937 24.7919 19.7968 24.9148C19.6567 25.0377 19.4781 25.1079 19.2918 25.1133C19.2067 25.1158 19.1222 25.0992 19.0445 25.0648C18.9667 25.0304 18.8976 24.979 18.8422 24.9145C18.7868 24.85 18.7465 24.7739 18.7243 24.6917C18.7021 24.6096 18.6985 24.5236 18.7139 24.44L19.5203 18.6996C19.5522 18.5053 19.6507 18.3281 19.799 18.1984C19.9472 18.0687 20.1359 17.9946 20.3328 17.9887H22.6281C22.6281 17.9887 23.6356 17.9572 24.2053 18.4468ZM30.5225 18.6153C30.4949 18.7872 30.4082 18.9441 30.2773 19.0589C30.1464 19.1736 29.9795 19.2391 29.8055 19.244H27.1354C27.1334 19.2441 27.1314 19.2449 27.1297 19.2461C27.1281 19.2474 27.1269 19.2492 27.1263 19.2511L26.914 20.7583C26.9137 20.7595 26.9137 20.7608 26.9139 20.7621C26.9142 20.7633 26.9147 20.7644 26.9155 20.7654C26.9163 20.7664 26.9173 20.7672 26.9185 20.7677C26.9196 20.7683 26.9209 20.7685 26.9221 20.7685H28.996C29.0755 20.7661 29.1544 20.7816 29.2271 20.8136C29.2998 20.8457 29.3644 20.8936 29.4162 20.9539C29.468 21.0142 29.5057 21.0852 29.5264 21.1619C29.5472 21.2386 29.5506 21.319 29.5364 21.3971C29.5088 21.569 29.422 21.7259 29.2911 21.8407C29.1602 21.9554 28.9934 22.0209 28.8193 22.0258H26.7444C26.7423 22.0259 26.7404 22.0267 26.7387 22.0279C26.7371 22.0292 26.7359 22.031 26.7353 22.0329L26.4803 23.8468C26.4803 23.8494 26.4813 23.8518 26.483 23.8537C26.4846 23.8556 26.487 23.8567 26.4895 23.857H29.1575C29.237 23.8546 29.3159 23.8701 29.3886 23.9022C29.4613 23.9342 29.5259 23.9822 29.5777 24.0424C29.6295 24.1027 29.6671 24.1737 29.6879 24.2504C29.7087 24.3271 29.7121 24.4075 29.6978 24.4857C29.6702 24.6575 29.5835 24.8144 29.4526 24.9292C29.3217 25.044 29.1548 25.1094 28.9808 25.1143H25.6699C25.5805 25.1156 25.492 25.0972 25.4106 25.0604C25.3292 25.0236 25.2568 24.9694 25.1987 24.9016C25.1405 24.8338 25.098 24.754 25.0741 24.6679C25.0503 24.5818 25.0456 24.4915 25.0605 24.4034L25.8618 18.7037C25.8938 18.5094 25.9923 18.3322 26.1405 18.2025C26.2888 18.0728 26.4775 17.9986 26.6743 17.9928H29.9843C30.0629 17.9909 30.141 18.0065 30.2129 18.0383C30.2848 18.0702 30.3488 18.1176 30.4002 18.1771C30.4517 18.2366 30.4893 18.3067 30.5105 18.3825C30.5316 18.4583 30.5357 18.5378 30.5225 18.6153ZM36.0689 18.6153C36.0413 18.7872 35.9545 18.9441 35.8236 19.0589C35.6927 19.1736 35.5258 19.2391 35.3518 19.244H32.6818C32.6797 19.2441 32.6777 19.2449 32.6761 19.2461C32.6744 19.2474 32.6732 19.2492 32.6726 19.2511L32.4614 20.7583C32.461 20.7595 32.461 20.7608 32.4613 20.7621C32.4615 20.7633 32.4621 20.7644 32.4629 20.7654C32.4637 20.7664 32.4647 20.7672 32.4658 20.7677C32.467 20.7683 32.4682 20.7685 32.4695 20.7685H34.5434C34.6228 20.7661 34.7018 20.7816 34.7744 20.8136C34.8471 20.8457 34.9117 20.8936 34.9635 20.9539C35.0153 21.0142 35.053 21.0852 35.0738 21.1619C35.0946 21.2386 35.098 21.319 35.0837 21.3971C35.0561 21.569 34.9694 21.7259 34.8385 21.8407C34.7076 21.9554 34.5407 22.0209 34.3667 22.0258H32.2907C32.2887 22.0259 32.2867 22.0267 32.285 22.0279C32.2834 22.0292 32.2822 22.031 32.2816 22.0329L32.0267 23.8468C32.0267 23.8494 32.0276 23.8518 32.0293 23.8537C32.031 23.8556 32.0333 23.8567 32.0358 23.857H34.7039C34.7833 23.8546 34.8622 23.8701 34.9349 23.9022C35.0076 23.9342 35.0722 23.9822 35.124 24.0424C35.1758 24.1027 35.2135 24.1737 35.2343 24.2504C35.255 24.3271 35.2584 24.4075 35.2442 24.4857C35.2166 24.6575 35.1298 24.8144 34.9989 24.9292C34.868 25.044 34.7012 25.1094 34.5271 25.1143H31.2162C31.1269 25.1156 31.0384 25.0972 30.9569 25.0604C30.8755 25.0236 30.8031 24.9694 30.745 24.9016C30.6869 24.8338 30.6443 24.754 30.6205 24.6679C30.5966 24.5818 30.5919 24.4915 30.6068 24.4034L31.4082 18.7037C31.4401 18.5094 31.5386 18.3322 31.6869 18.2025C31.8351 18.0728 32.0238 17.9986 32.2207 17.9928H35.5306C35.6092 17.9909 35.6873 18.0065 35.7592 18.0383C35.8311 18.0702 35.8951 18.1176 35.9466 18.1771C35.998 18.2366 36.0357 18.3067 36.0568 18.3825C36.0779 18.4583 36.0821 18.5378 36.0689 18.6153ZM39.9282 17.9643C40.8352 17.9643 42.0092 17.9765 43.1874 17.9958C44.6153 18.0192 45.8646 18.6753 46.6141 19.7945C47.4147 21.0015 48.1343 22.2602 48.7682 23.5625C49.1034 24.245 48.4869 25.1336 47.6795 25.1336H39.0213L39.9282 17.9643Z" fill="url(#paint3_linear_92_1182)"/>
<path d="M22.0847 21.4419H20.48L20.7847 19.244H22.3883C22.3883 19.244 23.5654 19.1679 23.3725 20.343C23.3776 20.343 23.2425 21.4419 22.0847 21.4419Z" fill="url(#paint4_linear_92_1182)"/>
</g>
<defs>
<linearGradient id="paint0_linear_92_1182" x1="16.5636" y1="34.0029" x2="21.4321" y2="39.2255" gradientUnits="userSpaceOnUse">
<stop stop-color="#00B59C"/>
<stop offset="1" stop-color="#9CFFAC"/>
</linearGradient>
<linearGradient id="paint1_linear_92_1182" x1="38.5236" y1="34.0045" x2="43.392" y2="39.2271" gradientUnits="userSpaceOnUse">
<stop stop-color="#00B59C"/>
<stop offset="1" stop-color="#9CFFAC"/>
</linearGradient>
<linearGradient id="paint2_linear_92_1182" x1="2.2835" y1="18.5564" x2="2.2835" y2="22.0248" gradientUnits="userSpaceOnUse">
<stop stop-color="#00B59C"/>
<stop offset="1" stop-color="#9CFFAC"/>
</linearGradient>
<linearGradient id="paint3_linear_92_1182" x1="26.0008" y1="11.5537" x2="26.0008" y2="36.2547" gradientUnits="userSpaceOnUse">
<stop stop-color="#00B59C"/>
<stop offset="1" stop-color="#9CFFAC"/>
</linearGradient>
<linearGradient id="paint4_linear_92_1182" x1="21.9369" y1="19.243" x2="21.9369" y2="21.4419" gradientUnits="userSpaceOnUse">
<stop stop-color="#00B59C"/>
<stop offset="1" stop-color="#9CFFAC"/>
</linearGradient>
<clipPath id="clip0_92_1182">
<rect width="52" height="52" fill="white"/>
</clipPath>
</defs>
</svg>
