<svg width="25" height="24" viewBox="0 0 25 24" fill="none" xmlns="http://www.w3.org/2000/svg">
<path fill-rule="evenodd" clip-rule="evenodd" d="M5.61702 2.481C6.39495 2.15798 7.22899 1.9917 8.07132 1.9917C8.91365 1.9917 9.7477 2.15798 10.5256 2.481C11.3036 2.80402 12.0101 3.27743 12.6047 3.87408L12.608 3.87742L12.6663 3.93653L12.7247 3.87743L12.728 3.87408C13.3226 3.27743 14.0291 2.80402 14.807 2.481C15.5849 2.15798 16.419 1.9917 17.2613 1.9917C18.1037 1.9917 18.9377 2.15798 19.7156 2.481C20.4933 2.80391 21.1996 3.2771 21.794 3.87346C24.3391 6.41916 24.3957 10.6283 21.38 13.7005L21.3735 13.7071L13.3734 21.7071C13.1859 21.8946 12.9315 22 12.6663 22C12.4011 22 12.1468 21.8946 11.9592 21.7071L3.95266 13.7005C0.936958 10.6283 0.993579 6.41915 3.53861 3.87346C4.13306 3.2771 4.83935 2.80391 5.61702 2.481ZM8.07132 3.9917C7.49222 3.9917 6.91881 4.10602 6.38399 4.32809C5.84916 4.55017 5.36343 4.87564 4.95466 5.28584L4.95343 5.28706C3.25982 6.98068 3.05608 9.92921 5.37684 12.2963L12.6663 19.5857L19.9558 12.2963C22.2766 9.92922 22.0728 6.98068 20.3792 5.28706L20.378 5.28584C19.9692 4.87564 19.4835 4.55017 18.9487 4.32809C18.4138 4.10602 17.8404 3.9917 17.2613 3.9917C16.6822 3.9917 16.1088 4.10602 15.574 4.32809C15.0399 4.54988 14.5547 4.87478 14.1463 5.28422C14.1457 5.28476 14.1452 5.2853 14.1447 5.28584L13.378 6.06249C13.1901 6.25282 12.9338 6.35996 12.6663 6.35996C12.3989 6.35996 12.1426 6.25282 11.9547 6.06249L11.188 5.28584C11.1875 5.2853 11.1869 5.28476 11.1864 5.28422C10.7779 4.87478 10.2928 4.54988 9.75866 4.32809C9.22383 4.10602 8.65042 3.9917 8.07132 3.9917Z" fill="#253D4E"/>
</svg>
