<svg width="39" height="40" viewBox="0 0 39 40" fill="none" xmlns="http://www.w3.org/2000/svg">
<path d="M13.2842 21.1273C12.6367 21.3787 11.9055 21.1045 11.5856 20.4875L5.64415 9.04647C4.95098 7.69061 5.47657 6.03768 6.83243 5.34452C6.91622 5.30643 6.99239 5.26834 7.07618 5.23026C8.60723 4.61327 10.2906 5.51209 10.7172 7.066L10.7248 7.08885L14.0992 19.5125C14.2744 20.1752 13.924 20.876 13.2842 21.1273Z" fill="#F98500"/>
<path d="M12.9643 15.3611L11.2809 16.0238C10.9686 16.1381 10.6182 15.9857 10.4888 15.6734C10.3669 15.3611 10.5192 15.0031 10.8315 14.8813L12.6368 14.1729L12.9643 15.3611Z" fill="#FA6D00"/>
<path d="M13.6192 17.7452L12.172 18.286C11.8597 18.3926 11.5169 18.2479 11.3798 17.9356C11.2579 17.6233 11.4102 17.2653 11.7302 17.1434L13.2993 16.5569L13.6192 17.7452Z" fill="#FA6D00"/>
<path d="M20.4518 9.93753C19.9415 9.58714 19.6825 8.97015 19.7968 8.35315C20.0786 6.93636 19.1645 5.55765 17.7401 5.26819C17.7249 5.26819 17.702 5.26058 17.6868 5.26058C17.1003 5.16155 16.6128 4.74261 16.43 4.17132C16.3843 4.03421 16.3309 3.8971 16.27 3.76761C15.6225 2.47269 14.0534 1.9471 12.7585 2.59456C11.5321 3.20394 10.9837 4.65882 11.5016 5.92327C11.7682 6.57835 11.8977 7.17249 11.4483 7.80472C10.6104 8.98538 10.8923 10.6231 12.0729 11.4534C12.0806 11.461 12.0958 11.4686 12.1034 11.4762C12.6138 11.8342 12.8575 12.4588 12.7356 13.0682C12.4614 14.485 13.3907 15.8637 14.8151 16.1379C16.0948 16.3817 17.3516 15.658 17.7858 14.4317C19.0807 15.0791 20.6499 14.5459 21.2974 13.2586C21.8763 12.0932 21.5182 10.684 20.4518 9.93753Z" fill="#598C44"/>
<path d="M26.3935 12.0324C26.0507 11.5144 26.0431 10.8441 26.3783 10.3185C27.1781 9.11497 26.8429 7.48489 25.6394 6.68509C25.6242 6.67747 25.6089 6.66223 25.5937 6.65462C24.8472 6.18235 24.9005 5.51204 24.8396 4.7427C24.733 3.30306 23.4685 2.22141 22.0289 2.32806C20.6654 2.4347 19.6066 3.56966 19.6066 4.94075C19.6066 5.64915 19.4999 6.24329 18.8525 6.66223C17.6337 7.43919 17.2757 9.06165 18.0603 10.2804C18.0679 10.288 18.0755 10.3032 18.0831 10.3109C18.4183 10.8365 18.4183 11.5068 18.0679 12.0247C17.2833 13.2359 17.6261 14.8583 18.8372 15.6505C19.9265 16.3589 21.3738 16.1609 22.2269 15.1859C23.1867 16.2675 24.8396 16.3741 25.9212 15.422C26.8962 14.5689 27.0943 13.1216 26.3935 12.0324Z" fill="#5F9548"/>
<path d="M30.4687 19.3906L23.1562 16.9531L27.1857 4.87223C27.6732 3.41734 29.1586 2.29 30.7049 2.32809C31.6646 2.35094 32.5635 2.53375 33.3176 3.14312C34.5363 4.11812 35.0162 5.7482 34.5211 7.22594L30.4687 19.3906Z" fill="#FFB531"/>
<path d="M25.5938 13.2969V35.2344H7.3125V13.2969L9.14062 14.5156L10.9688 13.2969L12.7969 14.5156L14.625 13.2969L16.4531 14.5156L18.2812 13.2969L20.1094 14.5156L21.9375 13.2969L23.7656 14.5156L25.5938 13.2969Z" fill="#FFB531"/>
<path d="M25.5938 18.3469V35.2342H7.3125V31.5399C14.0232 29.2852 20.673 25.1795 25.5938 18.3469Z" fill="#FCAC1F"/>
<path d="M32.9062 13.2969V35.2344H25.5938V13.2969L27.4219 14.5156L29.25 13.2969L31.0781 14.5156L32.9062 13.2969Z" fill="#F98500"/>
<path d="M7.42676 37.6719C10.1191 37.6719 12.3018 35.4893 12.3018 32.7969C12.3018 30.1045 10.1191 27.9219 7.42676 27.9219C4.73437 27.9219 2.55176 30.1045 2.55176 32.7969C2.55176 35.4893 4.73437 37.6719 7.42676 37.6719Z" fill="#F35244"/>
<path d="M17.6719 24.875L18.2812 26.0938C17.5271 26.8479 17.2225 27.9447 17.4814 28.9883L17.6719 29.75H15.2344V28.8207C15.2344 27.1525 16.1789 25.6215 17.6719 24.875Z" fill="#5F9548"/>
<path d="M14.0992 37.6719C13.3299 37.6719 12.6443 37.1691 12.4234 36.4303L11.0524 31.8523C10.6715 30.5803 11.5094 29.1406 12.9186 29.1406C13.6041 29.1406 14.2363 29.4986 14.5867 30.0852L15.8436 32.1875V35.9275C15.8436 36.8873 15.059 37.6719 14.0992 37.6719Z" fill="#FA9F0C"/>
<path d="M18.8068 37.6719C19.5762 37.6719 20.2617 37.1691 20.4826 36.4303L21.8537 31.8523C22.2422 30.565 21.3891 29.1406 19.9875 29.1406C19.302 29.1406 18.6697 29.4986 18.3193 30.0852L17.0625 32.1875V35.9275C17.0625 36.8873 17.8471 37.6719 18.8068 37.6719Z" fill="#FA9F0C"/>
<path d="M16.4531 29.1406C17.4662 29.1406 18.2812 29.9557 18.2812 30.9688V35.8438C18.2812 36.8568 17.4662 37.6719 16.4531 37.6719C15.44 37.6719 14.625 36.8568 14.625 35.8438V30.9688C14.625 29.9557 15.44 29.1406 16.4531 29.1406Z" fill="#FFB531"/>
<path d="M33.6983 2.6708C32.571 1.76436 31.0247 1.49014 29.5546 1.9167C28.1226 2.33564 27.0485 3.34873 26.6067 4.68174L24.1464 12.0704L23.8569 11.6438L22.8362 12.3218V9.86143L24.5272 8.73408L23.8493 7.721L22.8286 8.39893V5.60342H21.6099V8.39131L20.5968 7.71338L19.9189 8.72646L21.6099 9.85381V12.3142L20.5968 11.6362L19.9189 12.6493L20.8558 13.2739L20.1017 13.7767L18.6087 12.7864C18.5401 12.7407 18.4716 12.7103 18.3954 12.695C18.4411 12.5808 18.5021 12.4665 18.5706 12.3599C19.0429 11.6362 19.0429 10.7069 18.5782 9.97568C18.1517 9.32822 18.1669 8.36084 18.6087 7.71338C18.7991 7.43916 19.5761 6.8831 19.7817 6.60889C20.1855 6.07568 20.2312 5.46631 20.2769 4.93311C20.3073 4.51416 20.3378 4.14854 20.5206 3.8667C21.1071 2.92979 22.3487 2.64795 23.2857 3.23447C23.4837 3.35635 23.6513 3.51631 23.796 3.6915C24.1235 4.10283 24.154 4.51416 24.1921 5.07021C24.2073 5.26064 24.2226 5.46631 24.2454 5.67959L25.4565 5.52725C25.4337 5.34443 25.4185 5.16162 25.4108 4.98643C25.3651 4.32373 25.3118 3.6458 24.7558 2.9374C23.6513 1.53584 21.6251 1.29971 20.2235 2.39658C19.9341 2.6251 19.6827 2.89932 19.4847 3.21162C19.1495 3.74482 19.1038 4.32373 19.0581 4.82646C19.0505 4.94072 19.0429 5.04736 19.0276 5.154C18.6544 4.90264 18.2278 4.72744 17.7784 4.64365C17.4128 4.58271 17.1081 4.32373 16.9939 3.97334C16.7272 3.14307 16.1483 2.45752 15.3714 2.06143C14.6097 1.65771 13.7185 1.58154 12.8958 1.84814C11.6847 2.25186 10.8011 3.38682 10.6944 4.68936C10.6563 5.18447 10.7782 5.61865 10.9001 6.00713C10.3288 5.07021 9.33096 4.47607 8.23408 4.40752L8.25693 1.70342L7.03818 1.6958L7.02295 3.45537L6.2917 1.58154L5.17959 2.04619L5.91084 3.92002L4.70732 2.64033L3.82373 3.47061L5.67471 5.45107C4.66924 6.48701 4.43311 8.04092 5.10342 9.32061L6.36787 11.7581L7.44951 11.1944L6.18506 8.75693C5.64424 7.71338 6.04795 6.42607 7.0915 5.88525C8.13506 5.34443 9.42236 5.74814 9.96319 6.7917C10.0317 6.92881 10.0851 7.06592 10.1308 7.21826L10.1536 7.29443L8.18838 8.06377L8.63018 9.19873L10.4735 8.48271V8.49033C10.3593 8.92451 10.3288 9.37393 10.405 9.82334L9.07959 10.3413L9.52139 11.4763L10.8315 10.9659C11.1362 11.4763 11.6618 11.9485 11.6618 11.9485L9.96319 12.6112L10.1612 13.1063L9.14815 13.7843L7.65518 12.794C7.37334 12.6036 7.0001 12.6798 6.80967 12.9616C6.74111 13.0606 6.71064 13.1825 6.71064 13.2968V26.0936H7.9294V14.4317L8.81299 15.0183C9.01865 15.1554 9.28525 15.1554 9.49092 15.0183L10.9839 14.028L12.4769 15.0183C12.6825 15.1554 12.9491 15.1554 13.1548 15.0183L14.6478 14.028L16.1407 15.0183C16.3464 15.1554 16.613 15.1554 16.8187 15.0183L18.3116 14.028L19.8046 15.0183C20.0103 15.1554 20.2769 15.1554 20.4825 15.0183L21.9755 14.028L23.4685 15.0183C23.6741 15.1554 23.9407 15.1554 24.1464 15.0183L25.03 14.4317V34.6249H22.5925V35.8436H32.9519C33.287 35.8436 33.5612 35.5694 33.5612 35.2343V13.2968C33.5612 13.114 33.4774 12.9464 33.3403 12.8321L35.1456 7.42393C35.6712 5.70244 35.1075 3.80576 33.6983 2.6708ZM17.5728 10.6612C17.6261 10.745 17.6642 10.8364 17.687 10.9354L17.2681 11.5524L16.3388 9.26728L17.1538 8.06377C16.9405 8.93975 17.0776 9.91475 17.5728 10.6612ZM13.3224 13.4415C13.4823 12.794 13.3528 12.1161 12.9796 11.5677C12.6216 11.0497 12.0503 10.6917 11.7608 10.128C11.6085 9.83096 11.5476 9.48818 11.5856 9.15303C11.6771 8.40654 12.2407 7.78193 12.3245 7.03545C12.3855 6.48701 12.1646 5.95381 12.0503 5.41299C11.7837 4.21709 12.5378 3.00596 13.8251 2.94502C14.4497 2.92217 15.0438 3.18877 15.4399 3.66865C15.7903 4.10283 15.9503 4.67412 16.3007 5.11592C16.5597 5.44346 16.9101 5.67959 17.3062 5.79385C17.6946 5.9081 18.1517 5.92334 18.4106 6.23564C17.9612 6.55557 17.5956 6.97451 17.3442 7.46963L16.4759 6.89072L15.7903 7.88096L14.7392 5.31396L13.6194 5.771L14.663 8.3456L13.4747 8.11709L13.231 9.30537L15.1886 9.74717L16.1407 11.9866L14.9524 11.7581L14.8077 12.4741C14.8001 12.4817 13.6347 13.213 13.3224 13.4415ZM15.4399 13.1063L16.6968 13.3653L16.7806 13.571L16.453 13.7843L15.4399 13.1063ZM23.3009 13.472L23.7731 13.1521L23.598 13.67L23.3009 13.472ZM26.203 14.4317L27.0866 15.0183C27.2923 15.1554 27.5589 15.1554 27.7646 15.0183L28.6481 14.4317V31.319L26.2106 33.7565V14.4317H26.203ZM32.2968 14.4317V33.7565L29.8593 31.319V14.4317L30.7429 15.0183C30.9485 15.1554 31.2151 15.1554 31.4208 15.0183L32.2968 14.4317ZM29.2499 32.4388L31.436 34.6249H27.0638L29.2499 32.4388ZM33.9421 7.03545L31.8702 13.2511L31.078 13.7767L29.5851 12.7864C29.3794 12.6493 29.1128 12.6493 28.9071 12.7864L27.4142 13.7767C27.4142 13.7767 25.8907 12.7636 25.8755 12.756C25.6774 12.6493 25.4337 12.6645 25.2509 12.7864L25.1595 12.8474L27.7569 5.0626C28.0769 4.11045 28.8538 3.39443 29.8974 3.08213C30.979 2.76221 32.114 2.96025 32.9366 3.61533C33.9497 4.43799 34.3534 5.80147 33.9421 7.03545Z" fill="black"/>
<path d="M28.5288 6.61157L32.1864 6.0032L32.3863 7.20489L28.7287 7.81326L28.5288 6.61157Z" fill="black"/>
<path d="M27.3091 10.2659L30.9667 9.6575L31.1666 10.8592L27.509 11.4676L27.3091 10.2659Z" fill="black"/>
<path d="M19.9949 28.5312C19.3246 28.5236 18.6771 28.7902 18.2049 29.2701C18.1973 29.2625 18.1896 29.2548 18.182 29.2396L18.083 28.8359C18.083 28.8283 18.083 28.8283 18.0754 28.8207C17.8393 27.9904 18.3115 26.9392 18.7229 26.5279C18.9057 26.3451 18.9514 26.0556 18.8371 25.8271L18.2277 24.6084C18.0754 24.3037 17.7098 24.1818 17.4127 24.3341C15.7064 25.1796 14.6324 26.924 14.64 28.8207V29.1482C14.4953 29.0416 14.3354 28.9425 14.1754 28.8511C12.9947 28.2189 11.4637 28.615 10.7629 29.7271C10.3592 30.3746 10.2525 31.2505 10.4811 32.0199L11.2732 34.663C10.2221 36.773 7.6627 37.6337 5.55273 36.5902C3.46563 35.5543 2.59727 33.033 3.60273 30.9306C3.61797 30.9002 3.6332 30.8697 3.64844 30.8392L3.67129 32.9111L4.89004 32.8959L4.85195 30.3593L7.28184 30.4736L7.34277 29.2548L5.22519 29.1558C5.85742 28.7673 6.58867 28.5541 7.32754 28.5312C8.21113 28.5084 9.07949 28.7597 9.81074 29.2548L10.4887 28.2418C9.11758 27.3201 7.40371 27.0687 5.82695 27.5486L6.08594 26.9392L4.96621 26.4593L4.12832 28.4093C4.06738 28.455 3.99883 28.5084 3.93789 28.5617L2.0793 26.7031L1.21855 27.5638L3.09238 29.4377C3.0543 29.491 3.01621 29.5443 2.97812 29.5976L0.982422 30.4507L1.4623 31.5705L2.16309 31.2658C1.31758 34.1755 2.99336 37.2148 5.90312 38.0603C7.82266 38.6164 9.89453 38.0832 11.3113 36.6664C11.4561 36.5216 11.5932 36.3617 11.7227 36.2017L11.8445 36.5978C12.2178 37.847 13.5279 38.5478 14.7771 38.1746C14.9523 38.1212 15.1123 38.0527 15.2723 37.9613C16.0111 38.3726 16.91 38.3726 17.6488 37.9613C18.7762 38.6087 20.2158 38.2127 20.8633 37.0853C20.9547 36.933 21.0232 36.7654 21.0766 36.5902L22.4477 32.0123C22.5314 31.7076 22.5695 31.3877 22.5543 31.0677C22.5467 29.6738 21.4041 28.5312 19.9949 28.5312ZM17.4203 25.7357L17.5574 26.0099C17.0775 26.6726 16.7348 27.64 16.7957 28.5541C16.6205 28.5236 16.1406 28.5007 15.8512 28.6074C15.9121 27.4572 16.491 26.406 17.4203 25.7357ZM13.01 36.255L11.6389 31.6771C11.5094 31.2429 11.5703 30.725 11.7836 30.3822C12.134 29.8185 12.9795 29.6052 13.5889 29.9328C13.8783 30.0851 13.9926 30.1918 14.1068 30.3365C14.0535 30.5421 14.023 30.7554 14.023 30.9687V35.8437C14.023 36.2627 14.1297 36.674 14.3354 37.0396C13.7488 37.1615 13.1775 36.8187 13.01 36.255ZM15.2342 35.8437V30.9687C15.2342 30.2984 15.7826 29.75 16.4529 29.75C17.1232 29.75 17.6717 30.2984 17.6717 30.9687V35.8437C17.6717 36.514 17.1232 37.0625 16.4529 37.0625C15.7826 37.0625 15.2342 36.514 15.2342 35.8437ZM21.2746 31.6771L19.9035 36.255C19.7359 36.8187 19.157 37.1615 18.5781 37.0396C18.7838 36.674 18.8904 36.2627 18.8904 35.8437V30.9687C18.8904 30.7783 18.8676 30.5955 18.8219 30.4127C18.9818 30.1689 19.3475 29.75 19.9873 29.75C20.7262 29.75 21.3203 30.3517 21.3203 31.083C21.3355 31.281 21.3203 31.4867 21.2746 31.6771Z" fill="black"/>
</svg>
