<svg width="25" height="24" viewBox="0 0 25 24" fill="none" xmlns="http://www.w3.org/2000/svg">
<path fill-rule="evenodd" clip-rule="evenodd" d="M11.8335 4C7.9675 4 4.8335 7.13401 4.8335 11C4.8335 14.866 7.9675 18 11.8335 18C15.6995 18 18.8335 14.866 18.8335 11C18.8335 7.13401 15.6995 4 11.8335 4ZM2.8335 11C2.8335 6.02944 6.86293 2 11.8335 2C16.8041 2 20.8335 6.02944 20.8335 11C20.8335 15.9706 16.8041 20 11.8335 20C6.86293 20 2.8335 15.9706 2.8335 11Z" fill="white"/>
<path fill-rule="evenodd" clip-rule="evenodd" d="M16.7763 15.9428C17.1668 15.5523 17.8 15.5523 18.1905 15.9428L22.5405 20.2928C22.931 20.6833 22.931 21.3165 22.5405 21.707C22.15 22.0975 21.5168 22.0975 21.1263 21.707L16.7763 17.357C16.3858 16.9665 16.3858 16.3333 16.7763 15.9428Z" fill="white"/>
</svg>
