<svg width="25" height="25" viewBox="0 0 25 25" fill="none" xmlns="http://www.w3.org/2000/svg">
<g clip-path="url(#clip0_92_1968)">
<path fill-rule="evenodd" clip-rule="evenodd" d="M7.6665 21.5C7.6665 20.3954 8.56193 19.5 9.6665 19.5C10.7711 19.5 11.6665 20.3954 11.6665 21.5C11.6665 22.6046 10.7711 23.5 9.6665 23.5C8.56193 23.5 7.6665 22.6046 7.6665 21.5Z" fill="#253D4E"/>
<path fill-rule="evenodd" clip-rule="evenodd" d="M18.6665 21.5C18.6665 20.3954 19.5619 19.5 20.6665 19.5C21.7711 19.5 22.6665 20.3954 22.6665 21.5C22.6665 22.6046 21.7711 23.5 20.6665 23.5C19.5619 23.5 18.6665 22.6046 18.6665 21.5Z" fill="#253D4E"/>
<path fill-rule="evenodd" clip-rule="evenodd" d="M0.666504 1.5C0.666504 0.947715 1.11422 0.5 1.6665 0.5H5.6665C6.14313 0.5 6.55351 0.836385 6.64706 1.30374L7.48693 5.5H23.6665C23.9645 5.5 24.247 5.63293 24.437 5.86256C24.627 6.09218 24.7046 6.39458 24.6488 6.68733L23.0474 15.0848C22.9102 15.7754 22.5345 16.3958 21.986 16.8373C21.4403 17.2766 20.7581 17.511 20.0579 17.5H10.3551C9.65488 17.511 8.97271 17.2766 8.42698 16.8373C7.87875 16.3959 7.50314 15.7759 7.36583 15.0857C7.36578 15.0854 7.36589 15.0859 7.36583 15.0857L5.69529 6.7392C5.68852 6.71159 5.68289 6.68353 5.67846 6.65508L4.84682 2.5H1.6665C1.11422 2.5 0.666504 2.05228 0.666504 1.5ZM7.88723 7.5L9.32734 14.6952C9.37307 14.9254 9.4983 15.1322 9.68112 15.2793C9.86393 15.4265 10.0927 15.5047 10.3273 15.5002L10.3465 15.5H20.0665L20.0857 15.5002C20.3203 15.5047 20.5491 15.4265 20.7319 15.2793C20.9139 15.1328 21.0388 14.9273 21.085 14.6984L22.4578 7.5H7.88723Z" fill="#253D4E"/>
</g>
<defs>
<clipPath id="clip0_92_1968">
<rect width="24" height="24" fill="white" transform="translate(0.666504 0.5)"/>
</clipPath>
</defs>
</svg>
